<svg version="1.1" xmlns="http://www.w3.org/2000/svg" xmlns:xlink="http://www.w3.org/1999/xlink" width="242.50002" height="64.86099" viewBox="0,0,242.50002,64.86099"><g transform="translate(-122.24999,-151.40284)"><g data-paper-data="{&quot;isPaintingLayer&quot;:true}" fill-rule="nonzero" stroke-linejoin="miter" stroke-miterlimit="10" stroke-dasharray="" stroke-dashoffset="0" style="mix-blend-mode: normal"><path d="M343.74999,185.26382c0,0 0,21.13419 0,26.33475c0,2.18889 -1.76769,4.66526 -4.96937,4.66526c-29.12543,0 -176.92025,0 -192.20246,0c-2.5131,0 -4.32816,-1.92626 -4.32816,-3.74965c0,-4.91553 0,-27.25035 0,-27.25035z" data-paper-data="{&quot;index&quot;:null}" fill="#5f7dff" stroke="#000000" stroke-width="0" stroke-linecap="butt"/><path d="M192.24999,168.40285c0,0 28.88941,-6.92848 35.55602,-8.52732c2.00875,-0.48175 8.18529,-0.7321 10.82307,-0.18025c7.33736,1.53506 41.62091,8.70757 41.62091,8.70757z" fill="#98abff" stroke="none" stroke-width="0" stroke-linecap="butt"/><path d="M235.74999,157.27784c0,-3.24467 2.63033,-5.875 5.875,-5.875c3.24467,0 5.875,2.63033 5.875,5.875c0,3.24467 -2.63033,5.875 -5.875,5.875c-3.24467,0 -5.875,-2.63033 -5.875,-5.875z" fill="#5f7dff" stroke="none" stroke-width="0" stroke-linecap="butt"/><path d="M199.24999,165.40284c0,0 28.88941,-6.92848 35.55602,-8.52732c2.00875,-0.48175 8.18529,-0.7321 10.82307,-0.18025c7.33736,1.53506 41.62091,8.70757 41.62091,8.70757z" fill="#5f7dff" stroke="none" stroke-width="0" stroke-linecap="butt"/><path d="M122.24999,205.59715c0,0 42.41775,-27.38784 63.60127,-41.06538c8.8682,-5.72592 25.70221,5.59464 45.95841,4.22693c23.9528,-1.6173 51.85233,5.06207 66.08197,7.15175c2.43568,0.35769 8.56354,-11.7001 10.21018,-10.53106c20.97874,14.89399 56.64819,40.21776 56.64819,40.21776z" fill="#5f7dff" stroke="#000000" stroke-width="0" stroke-linecap="round"/><path d="M139.74999,200.09715c0,0 0,-28.45888 0,-34.72222c0,-2.32335 1.88712,-4.77778 4.5,-4.77778c15.88895,0 169.55156,0 199.83333,0c3.3288,0 5.16667,3.15538 5.16667,5.94445c0,6.62651 0,33.55556 0,33.55556z" fill="#5f7dff" stroke="#000000" stroke-width="0" stroke-linecap="butt"/><path d="M167.82414,196.55631h-7.57333l-9.57635,-16.74909v16.74909h-7.17273v-27.91832h7.57333l9.57636,16.74909v-16.74909h7.17272zM180.98811,176.22086v20.33545h-6.98197v-14.9559h-2.98546v-5.37955zM174.00614,168.23738h6.98197v5.58939h-6.98197zM184.17311,185.38708v-5.57985h16.35801v5.57985zM228.03996,195.95541c-6.21891,0.66768 -11.93229,1.00151 -17.14015,1.00151c-2.6071,0 -4.52428,-0.61045 -5.75153,-1.83134c-1.22089,-1.22725 -1.83133,-3.14442 -1.83133,-5.75153v-12.75258c0,-2.79788 0.62952,-4.82633 1.88856,-6.08537c1.2654,-1.2654 3.29386,-1.8981 6.08536,-1.8981h14.36453v5.58938h-12.76211c-1.59606,0 -2.39408,0.79803 -2.39408,2.39409v12.75258c0,0.6168 0.17804,1.10325 0.53413,1.45935c0.36245,0.3561 0.8489,0.53414 1.45935,0.53414c3.05858,0 5.8501,-0.06359 8.37454,-0.19076v-5.78969h-5.18878v-4.77864h12.36151v15.34697zM240.40816,176.22086v20.33545h-6.98197v-14.9559h-2.98546v-5.37955zM233.4262,168.23738h6.98197v5.58939h-6.98197zM258.54906,175.01905c2.15563,0 3.81846,0.79803 4.98848,2.39409c1.22089,-0.82029 2.54352,-1.42437 3.96789,-1.81226c1.42437,-0.38789 2.69295,-0.58183 3.80575,-0.58183h0.4006c1.8059,0 3.25252,0.54685 4.33988,1.64057c1.09371,1.08736 1.64057,2.53398 1.64057,4.33988v15.55681h-6.97243v-14.355c0,-0.40061 -0.13353,-0.73127 -0.4006,-0.99197c-0.26707,-0.26707 -0.60091,-0.4006 -1.00151,-0.4006h-0.2003c-1.19545,0 -2.72475,0.26389 -4.58788,0.79167v14.9559h-6.97242v-14.355c0,-0.40061 -0.13354,-0.73127 -0.40061,-0.99197c-0.26707,-0.26707 -0.6009,-0.4006 -1.00151,-0.4006h-0.19076c-1.20182,0 -2.7311,0.26389 -4.58787,0.79167v14.9559h-6.98197v-21.13666h6.18076l0.4006,1.99349c1.24633,-0.82029 2.52763,-1.42437 3.8439,-1.81226c1.31627,-0.38789 2.42588,-0.58183 3.32883,-0.58183zM292.05127,196.55631c-1.78046,0.26707 -3.47509,0.40061 -5.08386,0.40061c-1.60877,0 -2.96003,-0.54368 -4.05374,-1.63103c-1.08736,-1.09372 -1.63103,-2.54352 -1.63103,-4.34942v-22.33847h6.98197v21.33696c0,0.40061 0.13036,0.73444 0.39107,1.00151c0.26707,0.26071 0.60091,0.39107 1.00151,0.39107h2.39409zM303.01583,180.00753c-1.06192,0 -1.59288,0.53096 -1.59288,1.59288v2.19378h6.78166v-2.19378c0,-1.06192 -0.53414,-1.59288 -1.60242,-1.59288zM314.38537,196.15571c-5.13155,0.53414 -9.7862,0.80121 -13.96393,0.80121c-1.8059,0 -3.25571,-0.54368 -4.34942,-1.63103c-1.08736,-1.09372 -1.63103,-2.54352 -1.63103,-4.34942v-9.57636c0,-1.99031 0.56593,-3.55139 1.6978,-4.68326c1.13187,-1.13187 2.69296,-1.6978 4.68326,-1.6978h7.97393c1.99667,0 3.55775,0.56593 4.68326,1.6978c1.13187,1.13187 1.6978,2.69295 1.6978,4.68326v7.38257h-13.75409v1.59288c0,0.40061 0.13353,0.73444 0.4006,1.00151c0.26707,0.26071 0.59773,0.39106 0.99198,0.39106c2.63254,0 6.48915,-0.19712 11.56984,-0.59136zM333.52472,196.55631c-2.58168,0.26707 -5.10612,0.40061 -7.57333,0.40061c-1.81226,0 -3.26524,-0.54368 -4.35896,-1.63103c-1.08736,-1.09372 -1.63103,-2.54352 -1.63103,-4.34942v-10.16772h-2.38455v-5.38909h2.38455l0.8012,-4.78817h6.18076v4.78817h4.98848v5.38909h-4.98848v9.16621c0,0.40061 0.13353,0.73444 0.4006,1.00151c0.26707,0.26071 0.59773,0.39107 0.99197,0.39107h5.18878zM336.31599,190.57586h7.18227v5.98046h-7.18227zM337.1172,188.18177l-0.80121,-8.37455v-11.16923h7.18227v11.16923l-0.80121,8.37455z" fill="#889dff" stroke="none" stroke-width="1" stroke-linecap="square"/><path d="M169.82414,195.05631h-7.57333l-9.57635,-16.74909v16.74909h-7.17273v-27.91832h7.57333l9.57636,16.74909v-16.74909h7.17272zM182.98811,174.72086v20.33545h-6.98197v-14.9559h-2.98546v-5.37955zM176.00614,166.73738h6.98197v5.58939h-6.98197zM186.17311,183.88708v-5.57985h16.35801v5.57985zM230.03996,194.45541c-6.21891,0.66768 -11.93229,1.00151 -17.14015,1.00151c-2.6071,0 -4.52428,-0.61045 -5.75153,-1.83134c-1.22089,-1.22725 -1.83133,-3.14442 -1.83133,-5.75153v-12.75258c0,-2.79788 0.62952,-4.82633 1.88856,-6.08537c1.2654,-1.2654 3.29386,-1.8981 6.08536,-1.8981h14.36453v5.58938h-12.76211c-1.59606,0 -2.39408,0.79803 -2.39408,2.39409v12.75258c0,0.6168 0.17804,1.10325 0.53413,1.45935c0.36245,0.3561 0.8489,0.53414 1.45935,0.53414c3.05858,0 5.8501,-0.06359 8.37454,-0.19076v-5.78969h-5.18878v-4.77864h12.36151v15.34697zM242.40816,174.72086v20.33545h-6.98197v-14.9559h-2.98546v-5.37955zM235.4262,166.73738h6.98197v5.58939h-6.98197zM260.54906,173.51905c2.15563,0 3.81846,0.79803 4.98848,2.39409c1.22089,-0.82029 2.54352,-1.42437 3.96789,-1.81226c1.42437,-0.38789 2.69295,-0.58183 3.80575,-0.58183h0.4006c1.8059,0 3.25252,0.54685 4.33988,1.64057c1.09371,1.08736 1.64057,2.53398 1.64057,4.33988v15.55681h-6.97243v-14.355c0,-0.40061 -0.13353,-0.73127 -0.4006,-0.99197c-0.26707,-0.26707 -0.60091,-0.4006 -1.00151,-0.4006h-0.2003c-1.19545,0 -2.72475,0.26389 -4.58788,0.79167v14.9559h-6.97242v-14.355c0,-0.40061 -0.13354,-0.73127 -0.40061,-0.99197c-0.26707,-0.26707 -0.6009,-0.4006 -1.00151,-0.4006h-0.19076c-1.20182,0 -2.7311,0.26389 -4.58787,0.79167v14.9559h-6.98197v-21.13666h6.18076l0.4006,1.99349c1.24633,-0.82029 2.52763,-1.42437 3.8439,-1.81226c1.31627,-0.38789 2.42588,-0.58183 3.32883,-0.58183zM294.05127,195.05631c-1.78046,0.26707 -3.47509,0.40061 -5.08386,0.40061c-1.60877,0 -2.96003,-0.54368 -4.05374,-1.63103c-1.08736,-1.09372 -1.63103,-2.54352 -1.63103,-4.34942v-22.33847h6.98197v21.33696c0,0.40061 0.13036,0.73444 0.39107,1.00151c0.26707,0.26071 0.60091,0.39107 1.00151,0.39107h2.39409zM305.01583,178.50753c-1.06192,0 -1.59288,0.53096 -1.59288,1.59288v2.19378h6.78166v-2.19378c0,-1.06192 -0.53414,-1.59288 -1.60242,-1.59288zM316.38537,194.65571c-5.13155,0.53414 -9.7862,0.80121 -13.96393,0.80121c-1.8059,0 -3.25571,-0.54368 -4.34942,-1.63103c-1.08736,-1.09372 -1.63103,-2.54352 -1.63103,-4.34942v-9.57636c0,-1.99031 0.56593,-3.55139 1.6978,-4.68326c1.13187,-1.13187 2.69296,-1.6978 4.68326,-1.6978h7.97393c1.99667,0 3.55775,0.56593 4.68326,1.6978c1.13187,1.13187 1.6978,2.69295 1.6978,4.68326v7.38257h-13.75409v1.59288c0,0.40061 0.13353,0.73444 0.4006,1.00151c0.26707,0.26071 0.59773,0.39106 0.99198,0.39106c2.63254,0 6.48915,-0.19712 11.56984,-0.59136zM335.52472,195.05631c-2.58168,0.26707 -5.10612,0.40061 -7.57333,0.40061c-1.81226,0 -3.26524,-0.54368 -4.35896,-1.63103c-1.08736,-1.09372 -1.63103,-2.54352 -1.63103,-4.34942v-10.16772h-2.38455v-5.38909h2.38455l0.8012,-4.78817h6.18076v4.78817h4.98848v5.38909h-4.98848v9.16621c0,0.40061 0.13353,0.73444 0.4006,1.00151c0.26707,0.26071 0.59773,0.39107 0.99197,0.39107h5.18878zM338.31599,189.07586h7.18227v5.98046h-7.18227zM339.1172,186.68177l-0.80121,-8.37455v-11.16923h7.18227v11.16923l-0.80121,8.37455z" fill="#ffffff" stroke="none" stroke-width="1" stroke-linecap="square"/><path d="M146.27142,204.73181h4.87158c0.79504,0 1.37829,0.18111 1.74972,0.54333c0.3745,0.36222 0.56175,0.91323 0.56175,1.65302c0,0.48501 -0.1059,0.881 -0.31771,1.18796c-0.20874,0.3039 -0.46813,0.51571 -0.77817,0.63542c0.65691,0.18111 1.10355,0.62008 1.33991,1.31689c0.08288,0.25171 0.12432,0.54333 0.12432,0.87486c0,0.79811 -0.18725,1.38442 -0.56175,1.75893c-0.3745,0.37143 -0.95927,0.55715 -1.75432,0.55715h-5.23534zM151.63108,210.57955c0,-0.48808 -0.24403,-0.73212 -0.73211,-0.73212h-2.43579v1.70827h2.43579c0.48808,0 0.73211,-0.24404 0.73211,-0.73212zM151.26272,207.1676c0,-0.48501 -0.24404,-0.72752 -0.73212,-0.72752h-2.06742v1.70368h2.06742c0.48808,0 0.73212,-0.24404 0.73212,-0.73212zM157.28981,208.20362c-0.32232,0 -0.48347,0.16269 -0.48347,0.48808v0.67226h2.06743v-0.67226c0,-0.32539 -0.16116,-0.48808 -0.48347,-0.48808zM160.76162,213.13966c-1.56554,0.15963 -2.98526,0.23944 -4.25917,0.23944c-0.55254,0 -0.99611,-0.16577 -1.3307,-0.49729c-0.33152,-0.33152 -0.49729,-0.77356 -0.49729,-1.3261v-2.92387c0,-0.6078 0.1719,-1.0836 0.51571,-1.4274c0.34688,-0.34688 0.82421,-0.52031 1.432,-0.52031h2.43579c0.6078,0 1.0836,0.17343 1.4274,0.52031c0.34688,0.34381 0.52031,0.8196 0.52031,1.4274v2.25161h-4.19932v0.48808c0,0.12278 0.03991,0.22562 0.11972,0.3085c0.08288,0.07981 0.18418,0.11972 0.3039,0.11972c0.80426,0 1.98147,-0.0614 3.53166,-0.18418zM161.85751,211.55571c1.64842,0.11972 2.94842,0.17957 3.90002,0.17957c0.11972,0 0.21948,-0.0399 0.2993,-0.11971c0.08288,-0.08288 0.12432,-0.18418 0.12432,-0.3039v-0.42822h-2.61536c-0.55254,0 -0.99611,-0.16576 -1.3307,-0.49729c-0.33152,-0.3346 -0.49729,-0.77817 -0.49729,-1.3307v-0.42362c0,-0.55254 0.16576,-0.99457 0.49729,-1.3261c0.3346,-0.3346 0.77817,-0.50189 1.3307,-0.50189h4.13946v1.58396h-3.41195c-0.11972,0 -0.22102,0.04144 -0.3039,0.12432c-0.07981,0.07981 -0.11971,0.18112 -0.11971,0.3039c0,0.11972 0.0399,0.22101 0.11971,0.30389c0.08288,0.07981 0.18418,0.11972 0.3039,0.11972h2.19175c0.55254,0 0.99457,0.16729 1.3261,0.50189c0.3346,0.33152 0.50189,0.77356 0.50189,1.3261v0.48808c0,0.55254 -0.1673,0.99457 -0.50189,1.3261c-0.33152,0.33152 -0.77356,0.49729 -1.3261,0.49729c-1.43661,0 -2.97913,-0.07981 -4.62754,-0.23944zM173.67317,213.25938c-0.78891,0.07981 -1.56093,0.11972 -2.31607,0.11972c-0.55254,0 -0.99457,-0.16577 -1.3261,-0.49729c-0.33152,-0.33152 -0.49729,-0.77356 -0.49729,-1.3261v-3.10805h-0.73212v-1.64381h0.73212l0.24404,-1.45963h1.88325v1.45963h1.52409v1.64381h-1.52409v2.80415c0,0.11972 0.03991,0.22102 0.11972,0.3039c0.08288,0.07981 0.18572,0.11972 0.30851,0.11972h1.58395zM178.04425,211.49124c2.22552,0.12278 3.7312,0.18418 4.51703,0.18418c0.18725,0 0.33613,-0.05372 0.44664,-0.16116c0.11051,-0.11051 0.16576,-0.25939 0.16576,-0.44664v-1.09588h-2.80415c-0.8503,0 -1.46884,-0.19185 -1.85562,-0.57556c-0.38678,-0.38678 -0.58017,-1.00686 -0.58017,-1.86023v-0.36836c0,-0.8503 0.19339,-1.46884 0.58017,-1.85562c0.38678,-0.38678 1.00532,-0.58017 1.85562,-0.58017h4.2776v1.70827h-3.78952c-0.48808,0 -0.73212,0.24251 -0.73212,0.72752v0.24404c0,0.48808 0.24404,0.73212 0.73212,0.73212h2.19175c0.79504,0 1.37982,0.18725 1.75432,0.56175c0.3745,0.37143 0.56175,0.9562 0.56175,1.75432v0.6078c0,0.79504 -0.18725,1.37982 -0.56175,1.75432c-0.3745,0.37143 -0.95928,0.55715 -1.75432,0.55715c-0.4144,0 -0.85183,-0.00768 -1.31229,-0.02303l-1.1235,-0.04604c-0.82881,-0.04298 -1.68526,-0.09976 -2.56932,-0.17037zM192.91754,211.43139c0,0.61086 -0.17343,1.0882 -0.52031,1.432c-0.34381,0.34381 -0.82114,0.51571 -1.43201,0.51571h-2.79954c-0.6078,0 -1.08513,-0.1719 -1.43201,-0.51571c-0.34381,-0.34381 -0.5157,-0.82114 -0.5157,-1.432v-2.79955c0,-0.6078 0.1719,-1.0836 0.5157,-1.4274c0.34688,-0.34688 0.82421,-0.52031 1.43201,-0.52031h2.79954c0.61086,0 1.0882,0.17343 1.43201,0.52031c0.34688,0.34381 0.52031,0.8196 0.52031,1.4274zM190.78565,208.81602c0,-0.32539 -0.16269,-0.48808 -0.48808,-0.48808h-1.46424c-0.32232,0 -0.48347,0.1627 -0.48347,0.48808v2.43578c0,0.32232 0.16116,0.48347 0.48347,0.48347h1.46424c0.32539,0 0.48808,-0.16116 0.48808,-0.48347zM198.57812,213.25938l-0.11972,-0.6078c-0.38371,0.25171 -0.77663,0.43589 -1.17876,0.55254c-0.39906,0.11665 -0.73672,0.17498 -1.01299,0.17498h-0.54793c-0.55254,0 -0.99611,-0.16577 -1.3307,-0.49729c-0.33152,-0.33152 -0.49729,-0.77356 -0.49729,-1.3261v-2.80415c0,-0.6078 0.1719,-1.0836 0.51571,-1.4274c0.34688,-0.34688 0.82421,-0.52031 1.432,-0.52031h2.49565v-2.07203h2.13189v8.52757zM196.87445,211.61557c0.42976,0 0.91629,-0.08134 1.45963,-0.24404v-2.92387h-1.82799c-0.32232,0 -0.48347,0.16269 -0.48347,0.48808v2.25161c0,0.12278 0.0399,0.22562 0.11971,0.3085c0.08288,0.07981 0.18419,0.11972 0.3039,0.11972zM204.24329,211.67543c0.42976,0 0.91629,-0.08134 1.45963,-0.24404v-0.72752h-1.76353c-0.12278,0 -0.22562,0.03991 -0.3085,0.11972c-0.07981,0.07981 -0.11972,0.18112 -0.11972,0.3039v0.12432c0,0.11972 0.03991,0.22102 0.11972,0.3039c0.08288,0.07981 0.18571,0.11972 0.3085,0.11972zM201.98708,206.92817c1.48573,-0.1627 2.82564,-0.24404 4.01975,-0.24404c0.55254,0 0.99457,0.1673 1.3261,0.50189c0.3346,0.33152 0.50189,0.77202 0.50189,1.32149v4.75186h-1.88785l-0.11972,-0.6078c-0.38371,0.25171 -0.77662,0.43589 -1.17875,0.55254c-0.40213,0.11665 -0.74132,0.17498 -1.01759,0.17498h-0.42362c-0.55254,0 -0.99611,-0.16577 -1.33071,-0.49729c-0.33152,-0.33152 -0.49728,-0.77356 -0.49728,-1.3261v-0.54793c0,-0.55254 0.16576,-0.99458 0.49728,-1.32611c0.3346,-0.3346 0.77817,-0.50189 1.33071,-0.50189h2.49565v-0.48808c0,-0.12278 -0.04144,-0.22408 -0.12432,-0.30389c-0.07981,-0.07981 -0.17958,-0.11972 -0.2993,-0.11972c-0.52799,0 -1.11123,0.02456 -1.74972,0.07368c-0.63849,0.04604 -1.15267,0.08134 -1.54252,0.1059zM212.70768,204.73181h4.87158c0.79504,0 1.37829,0.18111 1.74972,0.54333c0.3745,0.36222 0.56175,0.91323 0.56175,1.65302c0,0.48501 -0.1059,0.881 -0.31771,1.18796c-0.20874,0.3039 -0.46813,0.51571 -0.77817,0.63542c0.65691,0.18111 1.10355,0.62008 1.33991,1.31689c0.08288,0.25171 0.12432,0.54333 0.12432,0.87486c0,0.79811 -0.18725,1.38442 -0.56175,1.75893c-0.3745,0.37143 -0.95928,0.55715 -1.75432,0.55715h-5.23533zM218.06733,210.57955c0,-0.48808 -0.24404,-0.73212 -0.73212,-0.73212h-2.43579v1.70827h2.43579c0.48808,0 0.73212,-0.24404 0.73212,-0.73212zM217.69897,207.1676c0,-0.48501 -0.24404,-0.72752 -0.73212,-0.72752h-2.06743v1.70368h2.06743c0.48808,0 0.73212,-0.24404 0.73212,-0.73212zM224.94627,208.57198c-0.51263,0 -1.04062,0.12125 -1.58396,0.36375v4.32364h-2.13189v-6.45553h1.88785l0.12432,0.79198c0.69681,-0.6078 1.4274,-0.9117 2.19175,-0.9117h0.54793v1.88786zM228.90564,211.67543c0.42976,0 0.91629,-0.08134 1.45963,-0.24404v-0.72752h-1.76353c-0.12278,0 -0.22562,0.03991 -0.3085,0.11972c-0.07981,0.07981 -0.11972,0.18112 -0.11972,0.3039v0.12432c0,0.11972 0.03991,0.22102 0.11972,0.3039c0.08288,0.07981 0.18572,0.11972 0.3085,0.11972zM226.64942,206.92817c1.48573,-0.1627 2.82564,-0.24404 4.01975,-0.24404c0.55254,0 0.99457,0.1673 1.3261,0.50189c0.3346,0.33152 0.50189,0.77202 0.50189,1.32149v4.75186h-1.88786l-0.11971,-0.6078c-0.38371,0.25171 -0.77662,0.43589 -1.17875,0.55254c-0.40213,0.11665 -0.74133,0.17498 -1.0176,0.17498h-0.42361c-0.55254,0 -0.99611,-0.16577 -1.33071,-0.49729c-0.33152,-0.33152 -0.49729,-0.77356 -0.49729,-1.3261v-0.54793c0,-0.55254 0.16576,-0.99458 0.49729,-1.32611c0.3346,-0.3346 0.77817,-0.50189 1.33071,-0.50189h2.49564v-0.48808c0,-0.12278 -0.04144,-0.22408 -0.12432,-0.30389c-0.07981,-0.07981 -0.17958,-0.11972 -0.2993,-0.11972c-0.52799,0 -1.11123,0.02456 -1.74972,0.07368c-0.63849,0.04604 -1.15266,0.08134 -1.54251,0.1059zM237.18814,208.44766c-0.43283,0 -0.9209,0.08134 -1.46424,0.24404v4.56768h-2.1319v-6.45553h1.88786l0.12432,0.6078c0.38064,-0.25171 0.77202,-0.43589 1.17415,-0.55254c0.40213,-0.11665 0.74132,-0.17497 1.0176,-0.17497h0.54794c0.55254,0 0.99457,0.1673 1.3261,0.50189c0.3346,0.33152 0.50189,0.77202 0.50189,1.32149v4.75186h-2.13189v-4.3835c0,-0.12278 -0.04144,-0.22409 -0.12432,-0.3039c-0.07981,-0.08288 -0.18112,-0.12432 -0.3039,-0.12432zM245.83243,213.25938l-0.11972,-0.6078c-0.38371,0.25171 -0.77662,0.43589 -1.17875,0.55254c-0.39906,0.11665 -0.73672,0.17498 -1.01299,0.17498h-0.54794c-0.55254,0 -0.99611,-0.16577 -1.3307,-0.49729c-0.33152,-0.33152 -0.49729,-0.77356 -0.49729,-1.3261v-2.80415c0,-0.6078 0.1719,-1.0836 0.5157,-1.4274c0.34688,-0.34688 0.82421,-0.52031 1.43201,-0.52031h2.49564v-2.07203h2.1319v8.52757zM244.12876,211.61557c0.42976,0 0.91629,-0.08134 1.45963,-0.24404v-2.92387h-1.82799c-0.32232,0 -0.48347,0.16269 -0.48347,0.48808v2.25161c0,0.12278 0.03991,0.22562 0.11972,0.3085c0.08288,0.07981 0.18418,0.11972 0.3039,0.11972zM252.45765,211.49124c2.22552,0.12278 3.7312,0.18418 4.51703,0.18418c0.18725,0 0.33613,-0.05372 0.44664,-0.16116c0.11051,-0.11051 0.16576,-0.25939 0.16576,-0.44664v-1.09588h-2.80415c-0.8503,0 -1.46884,-0.19185 -1.85562,-0.57556c-0.38678,-0.38678 -0.58016,-1.00686 -0.58016,-1.86023v-0.36836c0,-0.8503 0.19338,-1.46884 0.58016,-1.85562c0.38678,-0.38678 1.00532,-0.58017 1.85562,-0.58017h4.2776v1.70827h-3.78952c-0.48808,0 -0.73212,0.24251 -0.73212,0.72752v0.24404c0,0.48808 0.24403,0.73212 0.73212,0.73212h2.19175c0.79505,0 1.37982,0.18725 1.75432,0.56175c0.3745,0.37143 0.56176,0.9562 0.56176,1.75432v0.6078c0,0.79504 -0.18726,1.37982 -0.56176,1.75432c-0.3745,0.37143 -0.95927,0.55715 -1.75432,0.55715c-0.4144,0 -0.85184,-0.00768 -1.31228,-0.02303l-1.12351,-0.04604c-0.82881,-0.04298 -1.68526,-0.09976 -2.56932,-0.17037zM263.43092,207.04789v6.21149h-2.13189v-4.56768h-0.9117v-1.64381zM261.29903,204.6121h2.13189v1.70367h-2.13189zM268.24449,208.44766c-0.43282,0 -0.9209,0.08134 -1.46424,0.24404v4.56768h-2.13189v-6.45553h1.88785l0.12432,0.6078c0.38064,-0.25171 0.77202,-0.43589 1.17415,-0.55254c0.40213,-0.11665 0.74133,-0.17497 1.0176,-0.17497h0.54793c0.55254,0 0.99458,0.1673 1.3261,0.50189c0.3346,0.33152 0.50189,0.77202 0.50189,1.32149v4.75186h-2.13189v-4.3835c0,-0.12278 -0.04144,-0.22409 -0.12432,-0.3039c-0.07981,-0.08288 -0.18111,-0.12432 -0.30389,-0.12432zM278.04452,213.13966c-1.51642,0.15963 -2.85479,0.23944 -4.01513,0.23944c-0.55254,0 -0.99611,-0.16577 -1.33071,-0.49729c-0.33152,-0.33152 -0.49729,-0.77356 -0.49729,-1.3261v-2.80415c0,-0.6078 0.1719,-1.0836 0.5157,-1.4274c0.34688,-0.34688 0.82421,-0.52031 1.43201,-0.52031h3.89542v1.64381h-3.22776c-0.32232,0 -0.48347,0.16269 -0.48347,0.48808v2.37593c0,0.11972 0.03991,0.22102 0.11972,0.3039c0.08288,0.07981 0.18419,0.11971 0.3039,0.11971c0.73059,0 1.82646,-0.05986 3.28762,-0.17957zM281.51517,208.20362c-0.32232,0 -0.48347,0.16269 -0.48347,0.48808v0.67226h2.06743v-0.67226c0,-0.32539 -0.16116,-0.48808 -0.48347,-0.48808zM284.98698,213.13966c-1.56554,0.15963 -2.98526,0.23944 -4.25918,0.23944c-0.55254,0 -0.99611,-0.16577 -1.3307,-0.49729c-0.33153,-0.33152 -0.49729,-0.77356 -0.49729,-1.3261v-2.92387c0,-0.6078 0.17191,-1.0836 0.51571,-1.4274c0.34688,-0.34688 0.82421,-0.52031 1.432,-0.52031h2.43579c0.6078,0 1.0836,0.17343 1.4274,0.52031c0.34687,0.34381 0.52031,0.8196 0.52031,1.4274v2.25161h-4.19932v0.48808c0,0.12278 0.0399,0.22562 0.11972,0.3085c0.08288,0.07981 0.18418,0.11972 0.3039,0.11972c0.80426,0 1.98147,-0.0614 3.53166,-0.18418zM294.12466,213.3791c-1.3568,0 -2.85941,-0.07981 -4.50783,-0.23944v-1.64842c1.79269,0.12278 3.13261,0.18418 4.01974,0.18418c0.18725,0 0.3346,-0.05372 0.44204,-0.16116c0.11051,-0.11051 0.16576,-0.25939 0.16576,-0.44664v-0.48808c0,-0.48808 -0.24403,-0.73212 -0.73211,-0.73212h-2.55551v-1.70367h2.31147c0.48808,0 0.73212,-0.24404 0.73212,-0.73212v-0.24404c0,-0.48501 -0.24404,-0.72752 -0.73212,-0.72752h-3.53166v-1.70827h4.14406c0.79505,0 1.37829,0.18111 1.74972,0.54333c0.3745,0.36222 0.56175,0.91323 0.56175,1.65302c0,0.48501 -0.11204,0.881 -0.33613,1.18796c-0.22101,0.3039 -0.51417,0.51571 -0.87946,0.63542c0.65691,0.18111 1.10355,0.62008 1.33992,1.31689c0.07981,0.25171 0.11972,0.54333 0.11972,0.87486v0.12432c0,0.79504 -0.18725,1.37982 -0.56175,1.75432c-0.37143,0.37143 -0.95467,0.55715 -1.74971,0.55715zM302.28135,207.04789c0,-0.48808 -0.2425,-0.73212 -0.72751,-0.73212h-1.33992c-0.48808,0 -0.73212,0.24404 -0.73212,0.73212v3.89542c0,0.48808 0.24403,0.73212 0.73212,0.73212h1.33992c0.48501,0 0.72751,-0.24404 0.72751,-0.73212zM304.4731,210.94331c0,0.85337 -0.19339,1.47345 -0.58017,1.86023c-0.38371,0.38371 -1.00225,0.57557 -1.85562,0.57557h-2.31147c-0.85337,0 -1.47345,-0.19186 -1.86023,-0.57557c-0.38371,-0.38678 -0.57556,-1.00686 -0.57556,-1.86023v-3.89542c0,-0.85337 0.19185,-1.47191 0.57556,-1.85562c0.38678,-0.38678 1.00685,-0.58017 1.86023,-0.58017h2.31147c0.85337,0 1.47191,0.19339 1.85562,0.58017c0.38678,0.38371 0.58017,1.00225 0.58017,1.85562zM310.44125,207.04789c0,-0.48808 -0.24251,-0.73212 -0.72752,-0.73212h-1.33992c-0.48808,0 -0.73212,0.24404 -0.73212,0.73212v3.89542c0,0.48808 0.24404,0.73212 0.73212,0.73212h1.33992c0.48501,0 0.72752,-0.24404 0.72752,-0.73212zM312.633,210.94331c0,0.85337 -0.19339,1.47345 -0.58017,1.86023c-0.38371,0.38371 -1.00225,0.57557 -1.85562,0.57557h-2.31147c-0.85337,0 -1.47345,-0.19186 -1.86023,-0.57557c-0.38371,-0.38678 -0.57556,-1.00686 -0.57556,-1.86023v-3.89542c0,-0.85337 0.19185,-1.47191 0.57556,-1.85562c0.38678,-0.38678 1.00685,-0.58017 1.86023,-0.58017h2.31147c0.85337,0 1.47191,0.19339 1.85562,0.58017c0.38678,0.38371 0.58017,1.00225 0.58017,1.85562zM317.50758,204.73181h4.87158c0.79504,0 1.37829,0.18111 1.74972,0.54333c0.3745,0.36222 0.56175,0.91323 0.56175,1.65302c0,0.48501 -0.1059,0.881 -0.31771,1.18796c-0.20874,0.3039 -0.46812,0.51571 -0.77817,0.63542c0.65691,0.18111 1.10355,0.62008 1.33992,1.31689c0.08288,0.25171 0.12432,0.54333 0.12432,0.87486c0,0.79811 -0.18725,1.38442 -0.56175,1.75893c-0.3745,0.37143 -0.95928,0.55715 -1.75432,0.55715h-5.23533zM322.86724,210.57955c0,-0.48808 -0.24404,-0.73212 -0.73212,-0.73212h-2.43579v1.70827h2.43579c0.48808,0 0.73212,-0.24404 0.73212,-0.73212zM322.49888,207.1676c0,-0.48501 -0.24404,-0.72752 -0.73212,-0.72752h-2.06742v1.70368h2.06742c0.48808,0 0.73212,-0.24404 0.73212,-0.73212zM332.7299,213.13966c-1.81111,0.15963 -3.31372,0.23944 -4.50782,0.23944c-0.79504,0 -1.37982,-0.18572 -1.75432,-0.55715c-0.37143,-0.3745 -0.55715,-0.95928 -0.55715,-1.75432v-3.90002c0,-0.8503 0.19186,-1.46884 0.57556,-1.85562c0.38678,-0.38678 1.00685,-0.58017 1.86023,-0.58017h4.3835v1.70827h-3.89542c-0.48808,0 -0.73212,0.24251 -0.73212,0.72752v3.90002c0,0.18725 0.05372,0.33613 0.16116,0.44664c0.11051,0.10744 0.25018,0.16116 0.41901,0.16116c0.1719,0 0.35915,-0.00153 0.56175,-0.0046c0.20567,-0.00307 0.41748,-0.00921 0.63543,-0.01842c0.21795,-0.00921 0.43896,-0.01689 0.66305,-0.02303c0.22408,-0.00921 0.51264,-0.02608 0.86565,-0.05064c0.35301,-0.02456 0.79351,-0.05373 1.3215,-0.08749zM333.58128,211.43139h2.19175v1.82799h-2.19175zM333.82532,210.70387l-0.24404,-2.56011v-3.41195h2.19175v3.41195l-0.24404,2.56011z" data-paper-data="{&quot;index&quot;:null}" fill="#889dff" stroke="none" stroke-width="1" stroke-linecap="square"/><path d="M147.60476,204.06515h4.87158c0.79505,0 1.37829,0.18111 1.74972,0.54333c0.3745,0.36222 0.56175,0.91323 0.56175,1.65302c0,0.48501 -0.1059,0.881 -0.31771,1.18797c-0.20874,0.3039 -0.46813,0.51571 -0.77816,0.63542c0.65691,0.18111 1.10355,0.62007 1.33991,1.31689c0.08288,0.25171 0.12432,0.54333 0.12432,0.87486c0,0.79812 -0.18725,1.38442 -0.56175,1.75893c-0.3745,0.37143 -0.95927,0.55715 -1.75432,0.55715h-5.23534zM152.96441,209.91288c0,-0.48808 -0.24404,-0.73212 -0.73212,-0.73212h-2.43579v1.70828h2.43579c0.48808,0 0.73212,-0.24404 0.73212,-0.73212zM152.59605,206.50094c0,-0.48501 -0.24404,-0.72751 -0.73212,-0.72751h-2.06743v1.70367h2.06743c0.48808,0 0.73212,-0.24404 0.73212,-0.73212zM158.62315,207.53695c-0.32232,0 -0.48347,0.16269 -0.48347,0.48808v0.67226h2.06743v-0.67226c0,-0.32539 -0.16116,-0.48808 -0.48347,-0.48808zM162.09496,212.47299c-1.56554,0.15962 -2.98526,0.23943 -4.25918,0.23943c-0.55254,0 -0.99611,-0.16576 -1.33071,-0.49729c-0.33153,-0.33153 -0.49729,-0.77356 -0.49729,-1.3261v-2.92387c0,-0.6078 0.1719,-1.0836 0.51571,-1.4274c0.34687,-0.34687 0.82421,-0.52031 1.432,-0.52031h2.43579c0.6078,0 1.0836,0.17344 1.4274,0.52031c0.34687,0.3438 0.52031,0.8196 0.52031,1.4274v2.25161h-4.19932v0.48808c0,0.12279 0.03991,0.22562 0.11972,0.3085c0.08288,0.07981 0.18418,0.11972 0.3039,0.11972c0.80426,0 1.98148,-0.06139 3.53166,-0.18418zM163.19084,210.88904c1.64842,0.11972 2.94843,0.17958 3.90003,0.17958c0.11972,0 0.21948,-0.03991 0.29929,-0.11972c0.08288,-0.08288 0.12432,-0.18418 0.12432,-0.3039v-0.42822h-2.61537c-0.55254,0 -0.99611,-0.16576 -1.33071,-0.49729c-0.33153,-0.33459 -0.49729,-0.77816 -0.49729,-1.33071v-0.42362c0,-0.55254 0.16576,-0.99458 0.49729,-1.3261c0.33459,-0.33459 0.77816,-0.50189 1.33071,-0.50189h4.13946v1.58395h-3.41195c-0.11972,0 -0.22102,0.04144 -0.3039,0.12432c-0.07981,0.07981 -0.11972,0.18111 -0.11972,0.3039c0,0.11972 0.03991,0.22102 0.11972,0.3039c0.08288,0.07981 0.18418,0.11972 0.3039,0.11972h2.19175c0.55254,0 0.99458,0.1673 1.3261,0.50189c0.33459,0.33153 0.50189,0.77356 0.50189,1.3261v0.48808c0,0.55254 -0.1673,0.99458 -0.50189,1.3261c-0.33153,0.33153 -0.77356,0.49729 -1.3261,0.49729c-1.43661,0 -2.97912,-0.07981 -4.62754,-0.23943zM175.0065,212.59271c-0.78891,0.07981 -1.56093,0.11972 -2.31607,0.11972c-0.55254,0 -0.99458,-0.16576 -1.3261,-0.49729c-0.33153,-0.33153 -0.49729,-0.77356 -0.49729,-1.3261v-3.10805h-0.73212v-1.64381h0.73212l0.24404,-1.45963h1.88325v1.45963h1.52409v1.64381h-1.52409v2.80415c0,0.11972 0.03991,0.22102 0.11972,0.3039c0.08288,0.07981 0.18572,0.11972 0.3085,0.11972h1.58395zM179.37758,210.82458c2.22552,0.12279 3.73119,0.18418 4.51703,0.18418c0.18725,0 0.33613,-0.05372 0.44664,-0.16116c0.11051,-0.11051 0.16576,-0.25939 0.16576,-0.44664v-1.09587h-2.80415c-0.8503,0 -1.46884,-0.19185 -1.85562,-0.57556c-0.38678,-0.38678 -0.58017,-1.00685 -0.58017,-1.86022v-0.36836c0,-0.8503 0.19339,-1.46884 0.58017,-1.85562c0.38678,-0.38678 1.00532,-0.58017 1.85562,-0.58017h4.2776v1.70828h-3.78952c-0.48808,0 -0.73212,0.2425 -0.73212,0.72751v0.24404c0,0.48808 0.24404,0.73212 0.73212,0.73212h2.19175c0.79505,0 1.37982,0.18725 1.75432,0.56175c0.3745,0.37143 0.56175,0.9562 0.56175,1.75432v0.6078c0,0.79505 -0.18725,1.37982 -0.56175,1.75432c-0.3745,0.37143 -0.95927,0.55715 -1.75432,0.55715c-0.41441,0 -0.85184,-0.00767 -1.31229,-0.02302l-1.1235,-0.04605c-0.82881,-0.04298 -1.68525,-0.09976 -2.56932,-0.17037zM194.25087,210.76472c0,0.61087 -0.17344,1.0882 -0.52031,1.432c-0.3438,0.3438 -0.82114,0.51571 -1.432,0.51571h-2.79955c-0.6078,0 -1.08513,-0.1719 -1.432,-0.51571c-0.3438,-0.3438 -0.51571,-0.82114 -0.51571,-1.432v-2.79955c0,-0.6078 0.1719,-1.0836 0.51571,-1.4274c0.34687,-0.34687 0.82421,-0.52031 1.432,-0.52031h2.79955c0.61087,0 1.0882,0.17344 1.432,0.52031c0.34687,0.3438 0.52031,0.8196 0.52031,1.4274zM192.11898,208.14935c0,-0.32539 -0.16269,-0.48808 -0.48808,-0.48808h-1.46424c-0.32232,0 -0.48347,0.16269 -0.48347,0.48808v2.43579c0,0.32232 0.16116,0.48347 0.48347,0.48347h1.46424c0.32539,0 0.48808,-0.16116 0.48808,-0.48347zM199.91145,212.59271l-0.11972,-0.6078c-0.38371,0.25171 -0.77663,0.43589 -1.17876,0.55254c-0.39906,0.11665 -0.73672,0.17497 -1.01299,0.17497h-0.54794c-0.55254,0 -0.99611,-0.16576 -1.33071,-0.49729c-0.33153,-0.33153 -0.49729,-0.77356 -0.49729,-1.3261v-2.80415c0,-0.6078 0.1719,-1.0836 0.51571,-1.4274c0.34687,-0.34687 0.82421,-0.52031 1.432,-0.52031h2.49565v-2.07203h2.13189v8.52756zM198.20778,210.9489c0.42976,0 0.9163,-0.08135 1.45963,-0.24404v-2.92387h-1.82799c-0.32232,0 -0.48347,0.16269 -0.48347,0.48808v2.25161c0,0.12279 0.03991,0.22562 0.11972,0.3085c0.08288,0.07981 0.18418,0.11972 0.3039,0.11972zM205.57663,211.00876c0.42976,0 0.9163,-0.08135 1.45963,-0.24404v-0.72751h-1.76353c-0.12279,0 -0.22562,0.03991 -0.3085,0.11972c-0.07981,0.07981 -0.11972,0.18111 -0.11972,0.3039v0.12432c0,0.11972 0.03991,0.22102 0.11972,0.3039c0.08288,0.07981 0.18572,0.11972 0.3085,0.11972zM203.32041,206.2615c1.48572,-0.16269 2.82564,-0.24404 4.01974,-0.24404c0.55254,0 0.99458,0.1673 1.3261,0.50189c0.33459,0.33153 0.50189,0.77202 0.50189,1.3215v4.75186h-1.88785l-0.11972,-0.6078c-0.38371,0.25171 -0.77663,0.43589 -1.17876,0.55254c-0.40213,0.11665 -0.74133,0.17497 -1.0176,0.17497h-0.42362c-0.55254,0 -0.99611,-0.16576 -1.33071,-0.49729c-0.33153,-0.33153 -0.49729,-0.77356 -0.49729,-1.3261v-0.54794c0,-0.55254 0.16576,-0.99458 0.49729,-1.3261c0.33459,-0.33459 0.77816,-0.50189 1.33071,-0.50189h2.49565v-0.48808c0,-0.12279 -0.04144,-0.22409 -0.12432,-0.3039c-0.07981,-0.07981 -0.17958,-0.11972 -0.29929,-0.11972c-0.52798,0 -1.11122,0.02456 -1.74972,0.07367c-0.63849,0.04605 -1.15266,0.08135 -1.54251,0.1059zM214.04101,204.06515h4.87158c0.79505,0 1.37829,0.18111 1.74972,0.54333c0.3745,0.36222 0.56175,0.91323 0.56175,1.65302c0,0.48501 -0.1059,0.881 -0.31771,1.18797c-0.20874,0.3039 -0.46813,0.51571 -0.77816,0.63542c0.65691,0.18111 1.10355,0.62007 1.33991,1.31689c0.08288,0.25171 0.12432,0.54333 0.12432,0.87486c0,0.79812 -0.18725,1.38442 -0.56175,1.75893c-0.3745,0.37143 -0.95927,0.55715 -1.75432,0.55715h-5.23534zM219.40067,209.91288c0,-0.48808 -0.24404,-0.73212 -0.73212,-0.73212h-2.43579v1.70828h2.43579c0.48808,0 0.73212,-0.24404 0.73212,-0.73212zM219.03231,206.50094c0,-0.48501 -0.24404,-0.72751 -0.73212,-0.72751h-2.06743v1.70367h2.06743c0.48808,0 0.73212,-0.24404 0.73212,-0.73212zM226.2796,207.90531c-0.51264,0 -1.04062,0.12125 -1.58395,0.36376v4.32364h-2.13189v-6.45553h1.88785l0.12432,0.79198c0.69682,-0.6078 1.4274,-0.91169 2.19175,-0.91169h0.54794v1.88785zM230.23897,211.00876c0.42976,0 0.9163,-0.08135 1.45963,-0.24404v-0.72751h-1.76353c-0.12279,0 -0.22562,0.03991 -0.3085,0.11972c-0.07981,0.07981 -0.11972,0.18111 -0.11972,0.3039v0.12432c0,0.11972 0.03991,0.22102 0.11972,0.3039c0.08288,0.07981 0.18572,0.11972 0.3085,0.11972zM227.98276,206.2615c1.48572,-0.16269 2.82564,-0.24404 4.01974,-0.24404c0.55254,0 0.99458,0.1673 1.3261,0.50189c0.33459,0.33153 0.50189,0.77202 0.50189,1.3215v4.75186h-1.88785l-0.11972,-0.6078c-0.38371,0.25171 -0.77663,0.43589 -1.17876,0.55254c-0.40213,0.11665 -0.74133,0.17497 -1.0176,0.17497h-0.42362c-0.55254,0 -0.99611,-0.16576 -1.33071,-0.49729c-0.33153,-0.33153 -0.49729,-0.77356 -0.49729,-1.3261v-0.54794c0,-0.55254 0.16576,-0.99458 0.49729,-1.3261c0.33459,-0.33459 0.77816,-0.50189 1.33071,-0.50189h2.49565v-0.48808c0,-0.12279 -0.04144,-0.22409 -0.12432,-0.3039c-0.07981,-0.07981 -0.17958,-0.11972 -0.29929,-0.11972c-0.52798,0 -1.11122,0.02456 -1.74972,0.07367c-0.63849,0.04605 -1.15266,0.08135 -1.54251,0.1059zM238.52147,207.78099c-0.43282,0 -0.9209,0.08135 -1.46424,0.24404v4.56768h-2.13189v-6.45553h1.88785l0.12432,0.6078c0.38064,-0.25171 0.77202,-0.43589 1.17415,-0.55254c0.40213,-0.11665 0.74133,-0.17497 1.0176,-0.17497h0.54794c0.55254,0 0.99458,0.1673 1.3261,0.50189c0.33459,0.33153 0.50189,0.77202 0.50189,1.3215v4.75186h-2.13189v-4.3835c0,-0.12279 -0.04144,-0.22409 -0.12432,-0.3039c-0.07981,-0.08288 -0.18111,-0.12432 -0.3039,-0.12432zM247.16577,212.59271l-0.11972,-0.6078c-0.38371,0.25171 -0.77663,0.43589 -1.17876,0.55254c-0.39906,0.11665 -0.73672,0.17497 -1.01299,0.17497h-0.54794c-0.55254,0 -0.99611,-0.16576 -1.33071,-0.49729c-0.33153,-0.33153 -0.49729,-0.77356 -0.49729,-1.3261v-2.80415c0,-0.6078 0.1719,-1.0836 0.51571,-1.4274c0.34687,-0.34687 0.82421,-0.52031 1.432,-0.52031h2.49565v-2.07203h2.13189v8.52756zM245.4621,210.9489c0.42976,0 0.9163,-0.08135 1.45963,-0.24404v-2.92387h-1.82799c-0.32232,0 -0.48347,0.16269 -0.48347,0.48808v2.25161c0,0.12279 0.03991,0.22562 0.11972,0.3085c0.08288,0.07981 0.18418,0.11972 0.3039,0.11972zM253.79099,210.82458c2.22552,0.12279 3.73119,0.18418 4.51703,0.18418c0.18725,0 0.33613,-0.05372 0.44664,-0.16116c0.11051,-0.11051 0.16576,-0.25939 0.16576,-0.44664v-1.09587h-2.80415c-0.8503,0 -1.46884,-0.19185 -1.85562,-0.57556c-0.38678,-0.38678 -0.58017,-1.00685 -0.58017,-1.86022v-0.36836c0,-0.8503 0.19339,-1.46884 0.58017,-1.85562c0.38678,-0.38678 1.00532,-0.58017 1.85562,-0.58017h4.2776v1.70828h-3.78952c-0.48808,0 -0.73212,0.2425 -0.73212,0.72751v0.24404c0,0.48808 0.24404,0.73212 0.73212,0.73212h2.19175c0.79505,0 1.37982,0.18725 1.75432,0.56175c0.3745,0.37143 0.56175,0.9562 0.56175,1.75432v0.6078c0,0.79505 -0.18725,1.37982 -0.56175,1.75432c-0.3745,0.37143 -0.95927,0.55715 -1.75432,0.55715c-0.41441,0 -0.85184,-0.00767 -1.31229,-0.02302l-1.1235,-0.04605c-0.82881,-0.04298 -1.68525,-0.09976 -2.56932,-0.17037zM264.76425,206.38122v6.21149h-2.13189v-4.56768h-0.91169v-1.64381zM262.63236,203.94543h2.13189v1.70367h-2.13189zM269.57782,207.78099c-0.43282,0 -0.9209,0.08135 -1.46424,0.24404v4.56768h-2.13189v-6.45553h1.88785l0.12432,0.6078c0.38064,-0.25171 0.77202,-0.43589 1.17415,-0.55254c0.40213,-0.11665 0.74133,-0.17497 1.0176,-0.17497h0.54794c0.55254,0 0.99458,0.1673 1.3261,0.50189c0.33459,0.33153 0.50189,0.77202 0.50189,1.3215v4.75186h-2.13189v-4.3835c0,-0.12279 -0.04144,-0.22409 -0.12432,-0.3039c-0.07981,-0.08288 -0.18111,-0.12432 -0.3039,-0.12432zM279.37785,212.47299c-1.51642,0.15962 -2.8548,0.23943 -4.01514,0.23943c-0.55254,0 -0.99611,-0.16576 -1.33071,-0.49729c-0.33153,-0.33153 -0.49729,-0.77356 -0.49729,-1.3261v-2.80415c0,-0.6078 0.1719,-1.0836 0.51571,-1.4274c0.34687,-0.34687 0.82421,-0.52031 1.432,-0.52031h3.89542v1.64381h-3.22777c-0.32232,0 -0.48347,0.16269 -0.48347,0.48808v2.37593c0,0.11972 0.03991,0.22102 0.11972,0.3039c0.08288,0.07981 0.18418,0.11972 0.3039,0.11972c0.73058,0 1.82646,-0.05986 3.28762,-0.17958zM282.84851,207.53695c-0.32232,0 -0.48347,0.16269 -0.48347,0.48808v0.67226h2.06743v-0.67226c0,-0.32539 -0.16116,-0.48808 -0.48347,-0.48808zM286.32031,212.47299c-1.56554,0.15962 -2.98526,0.23943 -4.25918,0.23943c-0.55254,0 -0.99611,-0.16576 -1.33071,-0.49729c-0.33153,-0.33153 -0.49729,-0.77356 -0.49729,-1.3261v-2.92387c0,-0.6078 0.1719,-1.0836 0.51571,-1.4274c0.34687,-0.34687 0.82421,-0.52031 1.432,-0.52031h2.43579c0.6078,0 1.0836,0.17344 1.4274,0.52031c0.34687,0.3438 0.52031,0.8196 0.52031,1.4274v2.25161h-4.19932v0.48808c0,0.12279 0.03991,0.22562 0.11972,0.3085c0.08288,0.07981 0.18418,0.11972 0.3039,0.11972c0.80426,0 1.98148,-0.06139 3.53166,-0.18418zM295.45799,212.71243c-1.3568,0 -2.8594,-0.07981 -4.50782,-0.23943v-1.64842c1.79269,0.12279 3.13261,0.18418 4.01974,0.18418c0.18725,0 0.33459,-0.05372 0.44203,-0.16116c0.11051,-0.11051 0.16576,-0.25939 0.16576,-0.44664v-0.48808c0,-0.48808 -0.24404,-0.73212 -0.73212,-0.73212h-2.55551v-1.70367h2.31147c0.48808,0 0.73212,-0.24404 0.73212,-0.73212v-0.24404c0,-0.48501 -0.24404,-0.72751 -0.73212,-0.72751h-3.53166v-1.70828h4.14406c0.79505,0 1.37829,0.18111 1.74972,0.54333c0.3745,0.36222 0.56175,0.91323 0.56175,1.65302c0,0.48501 -0.11204,0.881 -0.33613,1.18797c-0.22102,0.3039 -0.51417,0.51571 -0.87946,0.63542c0.65691,0.18111 1.10355,0.62007 1.33991,1.31689c0.07981,0.25171 0.11972,0.54333 0.11972,0.87486v0.12432c0,0.79505 -0.18725,1.37982 -0.56175,1.75432c-0.37143,0.37143 -0.95467,0.55715 -1.74972,0.55715zM303.61468,206.38122c0,-0.48808 -0.2425,-0.73212 -0.72751,-0.73212h-1.33991c-0.48808,0 -0.73212,0.24404 -0.73212,0.73212v3.89542c0,0.48808 0.24404,0.73212 0.73212,0.73212h1.33991c0.48501,0 0.72751,-0.24404 0.72751,-0.73212zM305.80643,210.27664c0,0.85337 -0.19339,1.47345 -0.58017,1.86022c-0.38371,0.38371 -1.00225,0.57556 -1.85562,0.57556h-2.31147c-0.85337,0 -1.47345,-0.19185 -1.86022,-0.57556c-0.38371,-0.38678 -0.57556,-1.00685 -0.57556,-1.86022v-3.89542c0,-0.85337 0.19185,-1.47191 0.57556,-1.85562c0.38678,-0.38678 1.00685,-0.58017 1.86022,-0.58017h2.31147c0.85337,0 1.47191,0.19339 1.85562,0.58017c0.38678,0.38371 0.58017,1.00225 0.58017,1.85562zM311.77458,206.38122c0,-0.48808 -0.2425,-0.73212 -0.72751,-0.73212h-1.33991c-0.48808,0 -0.73212,0.24404 -0.73212,0.73212v3.89542c0,0.48808 0.24404,0.73212 0.73212,0.73212h1.33991c0.48501,0 0.72751,-0.24404 0.72751,-0.73212zM313.96633,210.27664c0,0.85337 -0.19339,1.47345 -0.58017,1.86022c-0.38371,0.38371 -1.00225,0.57556 -1.85562,0.57556h-2.31147c-0.85337,0 -1.47345,-0.19185 -1.86022,-0.57556c-0.38371,-0.38678 -0.57556,-1.00685 -0.57556,-1.86022v-3.89542c0,-0.85337 0.19185,-1.47191 0.57556,-1.85562c0.38678,-0.38678 1.00685,-0.58017 1.86022,-0.58017h2.31147c0.85337,0 1.47191,0.19339 1.85562,0.58017c0.38678,0.38371 0.58017,1.00225 0.58017,1.85562zM318.84091,204.06515h4.87158c0.79505,0 1.37829,0.18111 1.74972,0.54333c0.3745,0.36222 0.56175,0.91323 0.56175,1.65302c0,0.48501 -0.1059,0.881 -0.31771,1.18797c-0.20874,0.3039 -0.46813,0.51571 -0.77816,0.63542c0.65691,0.18111 1.10355,0.62007 1.33991,1.31689c0.08288,0.25171 0.12432,0.54333 0.12432,0.87486c0,0.79812 -0.18725,1.38442 -0.56175,1.75893c-0.3745,0.37143 -0.95927,0.55715 -1.75432,0.55715h-5.23534zM324.20057,209.91288c0,-0.48808 -0.24404,-0.73212 -0.73212,-0.73212h-2.43579v1.70828h2.43579c0.48808,0 0.73212,-0.24404 0.73212,-0.73212zM323.83221,206.50094c0,-0.48501 -0.24404,-0.72751 -0.73212,-0.72751h-2.06743v1.70367h2.06743c0.48808,0 0.73212,-0.24404 0.73212,-0.73212zM334.06323,212.47299c-1.81111,0.15962 -3.31372,0.23943 -4.50782,0.23943c-0.79505,0 -1.37982,-0.18572 -1.75432,-0.55715c-0.37143,-0.3745 -0.55715,-0.95927 -0.55715,-1.75432v-3.90003c0,-0.8503 0.19185,-1.46884 0.57556,-1.85562c0.38678,-0.38678 1.00685,-0.58017 1.86022,-0.58017h4.3835v1.70828h-3.89542c-0.48808,0 -0.73212,0.2425 -0.73212,0.72751v3.90003c0,0.18725 0.05372,0.33613 0.16116,0.44664c0.11051,0.10744 0.25018,0.16116 0.41901,0.16116c0.1719,0 0.35915,-0.00154 0.56175,-0.0046c0.20567,-0.00307 0.41748,-0.00921 0.63542,-0.01842c0.21795,-0.00921 0.43896,-0.01688 0.66305,-0.02302c0.22409,-0.00921 0.51264,-0.02609 0.86565,-0.05065c0.35301,-0.02456 0.79351,-0.05372 1.3215,-0.08749zM334.91461,210.76472h2.19175v1.82799h-2.19175zM335.15865,210.0372l-0.24404,-2.56011v-3.41195h2.19175v3.41195l-0.24404,2.56011z" data-paper-data="{&quot;index&quot;:null}" fill="#ffffff" stroke="none" stroke-width="1" stroke-linecap="square"/></g></g></svg>